<svg width="20" height="20" viewBox="0 0 20 20" fill="none" xmlns="http://www.w3.org/2000/svg">
<path d="M9.9998 0C4.47711 0 0 4.47711 0 9.9998C0 14.6893 3.22874 18.6244 7.58425 19.7052V13.0557H5.52229V9.9998H7.58425V8.68303C7.58425 5.27949 9.12462 3.70193 12.4662 3.70193C13.0997 3.70193 14.1929 3.82632 14.6401 3.95032V6.72026C14.4041 6.69547 13.9941 6.68307 13.4849 6.68307C11.8454 6.68307 11.2118 7.30425 11.2118 8.91902V9.9998H14.4781L13.9169 13.0557H11.2118V19.9264C16.1633 19.3284 20 15.1125 20 9.9998C19.9996 4.47711 15.5225 0 9.9998 0Z" fill="white" fill-opacity="0.85"/>
</svg>
